<?xml version="1.0" encoding="UTF-8"?>
<!-- Generated by SVGo -->
<svg width="276.702mm" height="105.252mm" viewBox="0.000 0.000 276.702 105.252" xmlns="http://www.w3.org/2000/svg" xmlns:xlink="http://www.w3.org/1999/xlink">
<polygon points="271.702,100.251 5.001,100.251 5.001,5.001 271.702,5.001" style="fill:none;stroke-width:0.050000mm;stroke:black"/>
<polygon points="159.926,83.726 159.926,84.726 159.126,84.726 159.126,87.825 159.926,87.825 159.926,88.426 151.251,88.426 151.251,85.196 149.526,85.196 149.526,84.275 146.226,84.275 146.226,85.196 144.501,85.196 144.501,88.426 143.676,88.426 143.676,91.226 144.501,91.226 144.501,97.495 146.226,97.495 146.226,98.476 149.526,98.476 149.526,97.495 151.251,97.495 151.251,93.025 159.926,93.025 159.926,93.626 159.126,93.626 159.126,96.726 159.926,96.726 159.926,97.726 173.926,97.726 173.926,96.726 174.726,96.726 174.726,93.626 173.926,93.626 173.926,93.025 182.601,93.025 182.601,97.495 184.326,97.495 184.326,98.476 187.626,98.476 187.626,97.495 189.351,97.495 189.351,91.226 190.176,91.226 190.176,88.426 189.351,88.426 189.351,85.196 187.626,85.196 187.626,84.275 184.326,84.275 184.326,85.196 182.601,85.196 182.601,88.426 173.926,88.426 173.926,87.825 174.726,87.825 174.726,84.726 173.926,84.726 173.926,83.726" style="fill:none;stroke-width:0.050000mm;stroke:black"/>
<polygon points="102.776,83.726 102.776,84.726 101.976,84.726 101.976,87.825 102.776,87.825 102.776,88.426 94.101,88.426 94.101,85.196 92.376,85.196 92.376,84.275 89.076,84.275 89.076,85.196 87.351,85.196 87.351,88.426 86.526,88.426 86.526,91.226 87.351,91.226 87.351,97.495 89.076,97.495 89.076,98.476 92.376,98.476 92.376,97.495 94.101,97.495 94.101,93.025 102.776,93.025 102.776,93.626 101.976,93.626 101.976,96.726 102.776,96.726 102.776,97.726 116.776,97.726 116.776,96.726 117.576,96.726 117.576,93.626 116.776,93.626 116.776,93.025 125.451,93.025 125.451,97.495 127.176,97.495 127.176,98.476 130.476,98.476 130.476,97.495 132.201,97.495 132.201,91.226 133.026,91.226 133.026,88.426 132.201,88.426 132.201,85.196 130.476,85.196 130.476,84.275 127.176,84.275 127.176,85.196 125.451,85.196 125.451,88.426 116.776,88.426 116.776,87.825 117.576,87.825 117.576,84.726 116.776,84.726 116.776,83.726" style="fill:none;stroke-width:0.050000mm;stroke:black"/>
<polygon points="255.176,83.726 255.176,84.726 254.376,84.726 254.376,87.825 255.176,87.825 255.176,93.626 254.376,93.626 254.376,96.726 255.176,96.726 255.176,97.726 269.176,97.726 269.176,96.726 269.976,96.726 269.976,93.626 269.176,93.626 269.176,87.825 269.976,87.825 269.976,84.726 269.176,84.726 269.176,83.726" style="fill:none;stroke-width:0.050000mm;stroke:black"/>
<polygon points="236.126,83.726 236.126,84.726 235.326,84.726 235.326,87.825 236.126,87.825 236.126,93.626 235.326,93.626 235.326,96.726 236.126,96.726 236.126,97.726 250.126,97.726 250.126,96.726 250.926,96.726 250.926,93.626 250.126,93.626 250.126,87.825 250.926,87.825 250.926,84.726 250.126,84.726 250.126,83.726" style="fill:none;stroke-width:0.050000mm;stroke:black"/>
<polygon points="217.076,83.726 217.076,84.726 216.276,84.726 216.276,87.825 217.076,87.825 217.076,93.626 216.276,93.626 216.276,96.726 217.076,96.726 217.076,97.726 231.076,97.726 231.076,96.726 231.876,96.726 231.876,93.626 231.076,93.626 231.076,87.825 231.876,87.825 231.876,84.726 231.076,84.726 231.076,83.726" style="fill:none;stroke-width:0.050000mm;stroke:black"/>
<polygon points="198.026,83.726 198.026,84.726 197.226,84.726 197.226,87.825 198.026,87.825 198.026,93.626 197.226,93.626 197.226,96.726 198.026,96.726 198.026,97.726 212.026,97.726 212.026,96.726 212.826,96.726 212.826,93.626 212.026,93.626 212.026,87.825 212.826,87.825 212.826,84.726 212.026,84.726 212.026,83.726" style="fill:none;stroke-width:0.050000mm;stroke:black"/>
<polygon points="64.676,83.726 64.676,84.726 63.876,84.726 63.876,87.825 64.676,87.825 64.676,93.626 63.876,93.626 63.876,96.726 64.676,96.726 64.676,97.726 78.676,97.726 78.676,96.726 79.476,96.726 79.476,93.626 78.676,93.626 78.676,87.825 79.476,87.825 79.476,84.726 78.676,84.726 78.676,83.726" style="fill:none;stroke-width:0.050000mm;stroke:black"/>
<polygon points="45.626,83.726 45.626,84.726 44.826,84.726 44.826,87.825 45.626,87.825 45.626,93.626 44.826,93.626 44.826,96.726 45.626,96.726 45.626,97.726 59.626,97.726 59.626,96.726 60.426,96.726 60.426,93.626 59.626,93.626 59.626,87.825 60.426,87.825 60.426,84.726 59.626,84.726 59.626,83.726" style="fill:none;stroke-width:0.050000mm;stroke:black"/>
<polygon points="26.576,83.726 26.576,84.726 25.776,84.726 25.776,87.825 26.576,87.825 26.576,93.626 25.776,93.626 25.776,96.726 26.576,96.726 26.576,97.726 40.576,97.726 40.576,96.726 41.376,96.726 41.376,93.626 40.576,93.626 40.576,87.825 41.376,87.825 41.376,84.726 40.576,84.726 40.576,83.726" style="fill:none;stroke-width:0.050000mm;stroke:black"/>
<polygon points="7.526,83.726 7.526,84.726 6.726,84.726 6.726,87.825 7.526,87.825 7.526,93.626 6.726,93.626 6.726,96.726 7.526,96.726 7.526,97.726 21.526,97.726 21.526,96.726 22.326,96.726 22.326,93.626 21.526,93.626 21.526,87.825 22.326,87.825 22.326,84.726 21.526,84.726 21.526,83.726" style="fill:none;stroke-width:0.050000mm;stroke:black"/>
<polygon points="255.176,64.676 255.176,65.676 254.376,65.676 254.376,68.775 255.176,68.775 255.176,74.576 254.376,74.576 254.376,77.676 255.176,77.676 255.176,78.676 269.176,78.676 269.176,77.676 269.976,77.676 269.976,74.576 269.176,74.576 269.176,68.775 269.976,68.775 269.976,65.676 269.176,65.676 269.176,64.676" style="fill:none;stroke-width:0.050000mm;stroke:black"/>
<polygon points="236.126,64.676 236.126,65.676 235.326,65.676 235.326,68.775 236.126,68.775 236.126,74.576 235.326,74.576 235.326,77.676 236.126,77.676 236.126,78.676 250.126,78.676 250.126,77.676 250.926,77.676 250.926,74.576 250.126,74.576 250.126,68.775 250.926,68.775 250.926,65.676 250.126,65.676 250.126,64.676" style="fill:none;stroke-width:0.050000mm;stroke:black"/>
<polygon points="217.076,64.676 217.076,65.676 216.276,65.676 216.276,68.775 217.076,68.775 217.076,74.576 216.276,74.576 216.276,77.676 217.076,77.676 217.076,78.676 231.076,78.676 231.076,77.676 231.876,77.676 231.876,74.576 231.076,74.576 231.076,68.775 231.876,68.775 231.876,65.676 231.076,65.676 231.076,64.676" style="fill:none;stroke-width:0.050000mm;stroke:black"/>
<polygon points="198.026,64.676 198.026,65.676 197.226,65.676 197.226,68.775 198.026,68.775 198.026,74.576 197.226,74.576 197.226,77.676 198.026,77.676 198.026,78.676 212.026,78.676 212.026,77.676 212.826,77.676 212.826,74.576 212.026,74.576 212.026,68.775 212.826,68.775 212.826,65.676 212.026,65.676 212.026,64.676" style="fill:none;stroke-width:0.050000mm;stroke:black"/>
<polygon points="178.976,64.676 178.976,65.676 178.176,65.676 178.176,68.775 178.976,68.775 178.976,74.576 178.176,74.576 178.176,77.676 178.976,77.676 178.976,78.676 192.976,78.676 192.976,77.676 193.776,77.676 193.776,74.576 192.976,74.576 192.976,68.775 193.776,68.775 193.776,65.676 192.976,65.676 192.976,64.676" style="fill:none;stroke-width:0.050000mm;stroke:black"/>
<polygon points="159.926,64.676 159.926,65.676 159.126,65.676 159.126,68.775 159.926,68.775 159.926,74.576 159.126,74.576 159.126,77.676 159.926,77.676 159.926,78.676 173.926,78.676 173.926,77.676 174.726,77.676 174.726,74.576 173.926,74.576 173.926,68.775 174.726,68.775 174.726,65.676 173.926,65.676 173.926,64.676" style="fill:none;stroke-width:0.050000mm;stroke:black"/>
<polygon points="140.876,64.676 140.876,65.676 140.076,65.676 140.076,68.775 140.876,68.775 140.876,74.576 140.076,74.576 140.076,77.676 140.876,77.676 140.876,78.676 154.876,78.676 154.876,77.676 155.676,77.676 155.676,74.576 154.876,74.576 154.876,68.775 155.676,68.775 155.676,65.676 154.876,65.676 154.876,64.676" style="fill:none;stroke-width:0.050000mm;stroke:black"/>
<polygon points="121.825,64.676 121.825,65.676 121.025,65.676 121.025,68.775 121.825,68.775 121.825,74.576 121.025,74.576 121.025,77.676 121.825,77.676 121.825,78.676 135.826,78.676 135.826,77.676 136.626,77.676 136.626,74.576 135.826,74.576 135.826,68.775 136.626,68.775 136.626,65.676 135.826,65.676 135.826,64.676" style="fill:none;stroke-width:0.050000mm;stroke:black"/>
<polygon points="102.775,64.676 102.775,65.676 101.976,65.676 101.976,68.775 102.775,68.775 102.775,74.576 101.976,74.576 101.976,77.676 102.775,77.676 102.775,78.676 116.775,78.676 116.775,77.676 117.575,77.676 117.575,74.576 116.775,74.576 116.775,68.775 117.575,68.775 117.575,65.676 116.775,65.676 116.775,64.676" style="fill:none;stroke-width:0.050000mm;stroke:black"/>
<polygon points="83.726,64.676 83.726,65.676 82.926,65.676 82.926,68.775 83.726,68.775 83.726,74.576 82.926,74.576 82.926,77.676 83.726,77.676 83.726,78.676 97.726,78.676 97.726,77.676 98.525,77.676 98.525,74.576 97.726,74.576 97.726,68.775 98.525,68.775 98.525,65.676 97.726,65.676 97.726,64.676" style="fill:none;stroke-width:0.050000mm;stroke:black"/>
<polygon points="64.676,64.676 64.676,65.676 63.876,65.676 63.876,68.775 64.676,68.775 64.676,74.576 63.876,74.576 63.876,77.676 64.676,77.676 64.676,78.676 78.676,78.676 78.676,77.676 79.476,77.676 79.476,74.576 78.676,74.576 78.676,68.775 79.476,68.775 79.476,65.676 78.676,65.676 78.676,64.676" style="fill:none;stroke-width:0.050000mm;stroke:black"/>
<polygon points="45.626,64.676 45.626,65.676 44.826,65.676 44.826,68.775 45.626,68.775 45.626,74.576 44.826,74.576 44.826,77.676 45.626,77.676 45.626,78.676 59.626,78.676 59.626,77.676 60.426,77.676 60.426,74.576 59.626,74.576 59.626,68.775 60.426,68.775 60.426,65.676 59.626,65.676 59.626,64.676" style="fill:none;stroke-width:0.050000mm;stroke:black"/>
<polygon points="26.576,64.676 26.576,65.676 25.776,65.676 25.776,68.775 26.576,68.775 26.576,74.576 25.776,74.576 25.776,77.676 26.576,77.676 26.576,78.676 40.576,78.676 40.576,77.676 41.376,77.676 41.376,74.576 40.576,74.576 40.576,68.775 41.376,68.775 41.376,65.676 40.576,65.676 40.576,64.676" style="fill:none;stroke-width:0.050000mm;stroke:black"/>
<polygon points="7.526,64.676 7.526,65.676 6.726,65.676 6.726,68.775 7.526,68.775 7.526,74.576 6.726,74.576 6.726,77.676 7.526,77.676 7.526,78.676 21.526,78.676 21.526,77.676 22.326,77.676 22.326,74.576 21.526,74.576 21.526,68.775 22.326,68.775 22.326,65.676 21.526,65.676 21.526,64.676" style="fill:none;stroke-width:0.050000mm;stroke:black"/>
<polygon points="255.176,45.626 255.176,46.626 254.376,46.626 254.376,49.726 255.176,49.726 255.176,55.526 254.376,55.526 254.376,58.626 255.176,58.626 255.176,59.626 269.176,59.626 269.176,58.626 269.976,58.626 269.976,55.526 269.176,55.526 269.176,49.726 269.976,49.726 269.976,46.626 269.176,46.626 269.176,45.626" style="fill:none;stroke-width:0.050000mm;stroke:black"/>
<polygon points="236.126,45.626 236.126,46.626 235.326,46.626 235.326,49.726 236.126,49.726 236.126,55.526 235.326,55.526 235.326,58.626 236.126,58.626 236.126,59.626 250.126,59.626 250.126,58.626 250.926,58.626 250.926,55.526 250.126,55.526 250.126,49.726 250.926,49.726 250.926,46.626 250.126,46.626 250.126,45.626" style="fill:none;stroke-width:0.050000mm;stroke:black"/>
<polygon points="217.076,45.626 217.076,46.626 216.276,46.626 216.276,49.726 217.076,49.726 217.076,55.526 216.276,55.526 216.276,58.626 217.076,58.626 217.076,59.626 231.076,59.626 231.076,58.626 231.876,58.626 231.876,55.526 231.076,55.526 231.076,49.726 231.876,49.726 231.876,46.626 231.076,46.626 231.076,45.626" style="fill:none;stroke-width:0.050000mm;stroke:black"/>
<polygon points="198.026,45.626 198.026,46.626 197.226,46.626 197.226,49.726 198.026,49.726 198.026,55.526 197.226,55.526 197.226,58.626 198.026,58.626 198.026,59.626 212.026,59.626 212.026,58.626 212.826,58.626 212.826,55.526 212.026,55.526 212.026,49.726 212.826,49.726 212.826,46.626 212.026,46.626 212.026,45.626" style="fill:none;stroke-width:0.050000mm;stroke:black"/>
<polygon points="178.976,45.626 178.976,46.626 178.176,46.626 178.176,49.726 178.976,49.726 178.976,55.526 178.176,55.526 178.176,58.626 178.976,58.626 178.976,59.626 192.976,59.626 192.976,58.626 193.776,58.626 193.776,55.526 192.976,55.526 192.976,49.726 193.776,49.726 193.776,46.626 192.976,46.626 192.976,45.626" style="fill:none;stroke-width:0.050000mm;stroke:black"/>
<polygon points="159.926,45.626 159.926,46.626 159.126,46.626 159.126,49.726 159.926,49.726 159.926,55.526 159.126,55.526 159.126,58.626 159.926,58.626 159.926,59.626 173.926,59.626 173.926,58.626 174.726,58.626 174.726,55.526 173.926,55.526 173.926,49.726 174.726,49.726 174.726,46.626 173.926,46.626 173.926,45.626" style="fill:none;stroke-width:0.050000mm;stroke:black"/>
<polygon points="140.876,45.626 140.876,46.626 140.076,46.626 140.076,49.726 140.876,49.726 140.876,55.526 140.076,55.526 140.076,58.626 140.876,58.626 140.876,59.626 154.876,59.626 154.876,58.626 155.676,58.626 155.676,55.526 154.876,55.526 154.876,49.726 155.676,49.726 155.676,46.626 154.876,46.626 154.876,45.626" style="fill:none;stroke-width:0.050000mm;stroke:black"/>
<polygon points="121.825,45.626 121.825,46.626 121.025,46.626 121.025,49.726 121.825,49.726 121.825,55.526 121.025,55.526 121.025,58.626 121.825,58.626 121.825,59.626 135.826,59.626 135.826,58.626 136.626,58.626 136.626,55.526 135.826,55.526 135.826,49.726 136.626,49.726 136.626,46.626 135.826,46.626 135.826,45.626" style="fill:none;stroke-width:0.050000mm;stroke:black"/>
<polygon points="102.775,45.626 102.775,46.626 101.976,46.626 101.976,49.726 102.775,49.726 102.775,55.526 101.976,55.526 101.976,58.626 102.775,58.626 102.775,59.626 116.775,59.626 116.775,58.626 117.575,58.626 117.575,55.526 116.775,55.526 116.775,49.726 117.575,49.726 117.575,46.626 116.775,46.626 116.775,45.626" style="fill:none;stroke-width:0.050000mm;stroke:black"/>
<polygon points="83.726,45.626 83.726,46.626 82.926,46.626 82.926,49.726 83.726,49.726 83.726,55.526 82.926,55.526 82.926,58.626 83.726,58.626 83.726,59.626 97.726,59.626 97.726,58.626 98.525,58.626 98.525,55.526 97.726,55.526 97.726,49.726 98.525,49.726 98.525,46.626 97.726,46.626 97.726,45.626" style="fill:none;stroke-width:0.050000mm;stroke:black"/>
<polygon points="64.676,45.626 64.676,46.626 63.876,46.626 63.876,49.726 64.676,49.726 64.676,55.526 63.876,55.526 63.876,58.626 64.676,58.626 64.676,59.626 78.676,59.626 78.676,58.626 79.476,58.626 79.476,55.526 78.676,55.526 78.676,49.726 79.476,49.726 79.476,46.626 78.676,46.626 78.676,45.626" style="fill:none;stroke-width:0.050000mm;stroke:black"/>
<polygon points="45.626,45.626 45.626,46.626 44.826,46.626 44.826,49.726 45.626,49.726 45.626,55.526 44.826,55.526 44.826,58.626 45.626,58.626 45.626,59.626 59.626,59.626 59.626,58.626 60.426,58.626 60.426,55.526 59.626,55.526 59.626,49.726 60.426,49.726 60.426,46.626 59.626,46.626 59.626,45.626" style="fill:none;stroke-width:0.050000mm;stroke:black"/>
<polygon points="26.576,45.626 26.576,46.626 25.776,46.626 25.776,49.726 26.576,49.726 26.576,55.526 25.776,55.526 25.776,58.626 26.576,58.626 26.576,59.626 40.576,59.626 40.576,58.626 41.376,58.626 41.376,55.526 40.576,55.526 40.576,49.726 41.376,49.726 41.376,46.626 40.576,46.626 40.576,45.626" style="fill:none;stroke-width:0.050000mm;stroke:black"/>
<polygon points="7.526,45.626 7.526,46.626 6.726,46.626 6.726,49.726 7.526,49.726 7.526,55.526 6.726,55.526 6.726,58.626 7.526,58.626 7.526,59.626 21.526,59.626 21.526,58.626 22.326,58.626 22.326,55.526 21.526,55.526 21.526,49.726 22.326,49.726 22.326,46.626 21.526,46.626 21.526,45.626" style="fill:none;stroke-width:0.050000mm;stroke:black"/>
<polygon points="255.176,26.576 255.176,27.576 254.376,27.576 254.376,30.676 255.176,30.676 255.176,36.476 254.376,36.476 254.376,39.576 255.176,39.576 255.176,40.576 269.176,40.576 269.176,39.576 269.976,39.576 269.976,36.476 269.176,36.476 269.176,30.676 269.976,30.676 269.976,27.576 269.176,27.576 269.176,26.576" style="fill:none;stroke-width:0.050000mm;stroke:black"/>
<polygon points="236.126,26.576 236.126,27.576 235.326,27.576 235.326,30.676 236.126,30.676 236.126,36.476 235.326,36.476 235.326,39.576 236.126,39.576 236.126,40.576 250.126,40.576 250.126,39.576 250.926,39.576 250.926,36.476 250.126,36.476 250.126,30.676 250.926,30.676 250.926,27.576 250.126,27.576 250.126,26.576" style="fill:none;stroke-width:0.050000mm;stroke:black"/>
<polygon points="217.076,26.576 217.076,27.576 216.276,27.576 216.276,30.676 217.076,30.676 217.076,36.476 216.276,36.476 216.276,39.576 217.076,39.576 217.076,40.576 231.076,40.576 231.076,39.576 231.876,39.576 231.876,36.476 231.076,36.476 231.076,30.676 231.876,30.676 231.876,27.576 231.076,27.576 231.076,26.576" style="fill:none;stroke-width:0.050000mm;stroke:black"/>
<polygon points="198.026,26.576 198.026,27.576 197.226,27.576 197.226,30.676 198.026,30.676 198.026,36.476 197.226,36.476 197.226,39.576 198.026,39.576 198.026,40.576 212.026,40.576 212.026,39.576 212.826,39.576 212.826,36.476 212.026,36.476 212.026,30.676 212.826,30.676 212.826,27.576 212.026,27.576 212.026,26.576" style="fill:none;stroke-width:0.050000mm;stroke:black"/>
<polygon points="178.976,26.576 178.976,27.576 178.176,27.576 178.176,30.676 178.976,30.676 178.976,36.476 178.176,36.476 178.176,39.576 178.976,39.576 178.976,40.576 192.976,40.576 192.976,39.576 193.776,39.576 193.776,36.476 192.976,36.476 192.976,30.676 193.776,30.676 193.776,27.576 192.976,27.576 192.976,26.576" style="fill:none;stroke-width:0.050000mm;stroke:black"/>
<polygon points="159.926,26.576 159.926,27.576 159.126,27.576 159.126,30.676 159.926,30.676 159.926,36.476 159.126,36.476 159.126,39.576 159.926,39.576 159.926,40.576 173.926,40.576 173.926,39.576 174.726,39.576 174.726,36.476 173.926,36.476 173.926,30.676 174.726,30.676 174.726,27.576 173.926,27.576 173.926,26.576" style="fill:none;stroke-width:0.050000mm;stroke:black"/>
<polygon points="140.876,26.576 140.876,27.576 140.076,27.576 140.076,30.676 140.876,30.676 140.876,36.476 140.076,36.476 140.076,39.576 140.876,39.576 140.876,40.576 154.876,40.576 154.876,39.576 155.676,39.576 155.676,36.476 154.876,36.476 154.876,30.676 155.676,30.676 155.676,27.576 154.876,27.576 154.876,26.576" style="fill:none;stroke-width:0.050000mm;stroke:black"/>
<polygon points="121.825,26.576 121.825,27.576 121.025,27.576 121.025,30.676 121.825,30.676 121.825,36.476 121.025,36.476 121.025,39.576 121.825,39.576 121.825,40.576 135.826,40.576 135.826,39.576 136.626,39.576 136.626,36.476 135.826,36.476 135.826,30.676 136.626,30.676 136.626,27.576 135.826,27.576 135.826,26.576" style="fill:none;stroke-width:0.050000mm;stroke:black"/>
<polygon points="102.775,26.576 102.775,27.576 101.976,27.576 101.976,30.676 102.775,30.676 102.775,36.476 101.976,36.476 101.976,39.576 102.775,39.576 102.775,40.576 116.775,40.576 116.775,39.576 117.575,39.576 117.575,36.476 116.775,36.476 116.775,30.676 117.575,30.676 117.575,27.576 116.775,27.576 116.775,26.576" style="fill:none;stroke-width:0.050000mm;stroke:black"/>
<polygon points="83.726,26.576 83.726,27.576 82.926,27.576 82.926,30.676 83.726,30.676 83.726,36.476 82.926,36.476 82.926,39.576 83.726,39.576 83.726,40.576 97.726,40.576 97.726,39.576 98.525,39.576 98.525,36.476 97.726,36.476 97.726,30.676 98.525,30.676 98.525,27.576 97.726,27.576 97.726,26.576" style="fill:none;stroke-width:0.050000mm;stroke:black"/>
<polygon points="64.676,26.576 64.676,27.576 63.876,27.576 63.876,30.676 64.676,30.676 64.676,36.476 63.876,36.476 63.876,39.576 64.676,39.576 64.676,40.576 78.676,40.576 78.676,39.576 79.476,39.576 79.476,36.476 78.676,36.476 78.676,30.676 79.476,30.676 79.476,27.576 78.676,27.576 78.676,26.576" style="fill:none;stroke-width:0.050000mm;stroke:black"/>
<polygon points="45.626,26.576 45.626,27.576 44.826,27.576 44.826,30.676 45.626,30.676 45.626,36.476 44.826,36.476 44.826,39.576 45.626,39.576 45.626,40.576 59.626,40.576 59.626,39.576 60.426,39.576 60.426,36.476 59.626,36.476 59.626,30.676 60.426,30.676 60.426,27.576 59.626,27.576 59.626,26.576" style="fill:none;stroke-width:0.050000mm;stroke:black"/>
<polygon points="26.576,26.576 26.576,27.576 25.776,27.576 25.776,30.676 26.576,30.676 26.576,36.476 25.776,36.476 25.776,39.576 26.576,39.576 26.576,40.576 40.576,40.576 40.576,39.576 41.376,39.576 41.376,36.476 40.576,36.476 40.576,30.676 41.376,30.676 41.376,27.576 40.576,27.576 40.576,26.576" style="fill:none;stroke-width:0.050000mm;stroke:black"/>
<polygon points="7.526,26.576 7.526,27.576 6.726,27.576 6.726,30.676 7.526,30.676 7.526,36.476 6.726,36.476 6.726,39.576 7.526,39.576 7.526,40.576 21.526,40.576 21.526,39.576 22.326,39.576 22.326,36.476 21.526,36.476 21.526,30.676 22.326,30.676 22.326,27.576 21.526,27.576 21.526,26.576" style="fill:none;stroke-width:0.050000mm;stroke:black"/>
<polygon points="255.176,7.526 255.176,8.526 254.376,8.526 254.376,11.626 255.176,11.626 255.176,17.426 254.376,17.426 254.376,20.526 255.176,20.526 255.176,21.526 269.176,21.526 269.176,20.526 269.976,20.526 269.976,17.426 269.176,17.426 269.176,11.626 269.976,11.626 269.976,8.526 269.176,8.526 269.176,7.526" style="fill:none;stroke-width:0.050000mm;stroke:black"/>
<polygon points="236.126,7.526 236.126,8.526 235.326,8.526 235.326,11.626 236.126,11.626 236.126,17.426 235.326,17.426 235.326,20.526 236.126,20.526 236.126,21.526 250.126,21.526 250.126,20.526 250.926,20.526 250.926,17.426 250.126,17.426 250.126,11.626 250.926,11.626 250.926,8.526 250.126,8.526 250.126,7.526" style="fill:none;stroke-width:0.050000mm;stroke:black"/>
<polygon points="217.076,7.526 217.076,8.526 216.276,8.526 216.276,11.626 217.076,11.626 217.076,17.426 216.276,17.426 216.276,20.526 217.076,20.526 217.076,21.526 231.076,21.526 231.076,20.526 231.876,20.526 231.876,17.426 231.076,17.426 231.076,11.626 231.876,11.626 231.876,8.526 231.076,8.526 231.076,7.526" style="fill:none;stroke-width:0.050000mm;stroke:black"/>
<polygon points="198.026,7.526 198.026,8.526 197.226,8.526 197.226,11.626 198.026,11.626 198.026,17.426 197.226,17.426 197.226,20.526 198.026,20.526 198.026,21.526 212.026,21.526 212.026,20.526 212.826,20.526 212.826,17.426 212.026,17.426 212.026,11.626 212.826,11.626 212.826,8.526 212.026,8.526 212.026,7.526" style="fill:none;stroke-width:0.050000mm;stroke:black"/>
<polygon points="178.976,7.526 178.976,8.526 178.176,8.526 178.176,11.626 178.976,11.626 178.976,17.426 178.176,17.426 178.176,20.526 178.976,20.526 178.976,21.526 192.976,21.526 192.976,20.526 193.776,20.526 193.776,17.426 192.976,17.426 192.976,11.626 193.776,11.626 193.776,8.526 192.976,8.526 192.976,7.526" style="fill:none;stroke-width:0.050000mm;stroke:black"/>
<polygon points="159.926,7.526 159.926,8.526 159.126,8.526 159.126,11.626 159.926,11.626 159.926,17.426 159.126,17.426 159.126,20.526 159.926,20.526 159.926,21.526 173.926,21.526 173.926,20.526 174.726,20.526 174.726,17.426 173.926,17.426 173.926,11.626 174.726,11.626 174.726,8.526 173.926,8.526 173.926,7.526" style="fill:none;stroke-width:0.050000mm;stroke:black"/>
<polygon points="140.876,7.526 140.876,8.526 140.076,8.526 140.076,11.626 140.876,11.626 140.876,17.426 140.076,17.426 140.076,20.526 140.876,20.526 140.876,21.526 154.876,21.526 154.876,20.526 155.676,20.526 155.676,17.426 154.876,17.426 154.876,11.626 155.676,11.626 155.676,8.526 154.876,8.526 154.876,7.526" style="fill:none;stroke-width:0.050000mm;stroke:black"/>
<polygon points="121.825,7.526 121.825,8.526 121.025,8.526 121.025,11.626 121.825,11.626 121.825,17.426 121.025,17.426 121.025,20.526 121.825,20.526 121.825,21.526 135.826,21.526 135.826,20.526 136.626,20.526 136.626,17.426 135.826,17.426 135.826,11.626 136.626,11.626 136.626,8.526 135.826,8.526 135.826,7.526" style="fill:none;stroke-width:0.050000mm;stroke:black"/>
<polygon points="102.775,7.526 102.775,8.526 101.976,8.526 101.976,11.626 102.775,11.626 102.775,17.426 101.976,17.426 101.976,20.526 102.775,20.526 102.775,21.526 116.775,21.526 116.775,20.526 117.575,20.526 117.575,17.426 116.775,17.426 116.775,11.626 117.575,11.626 117.575,8.526 116.775,8.526 116.775,7.526" style="fill:none;stroke-width:0.050000mm;stroke:black"/>
<polygon points="83.726,7.526 83.726,8.526 82.926,8.526 82.926,11.626 83.726,11.626 83.726,17.426 82.926,17.426 82.926,20.526 83.726,20.526 83.726,21.526 97.726,21.526 97.726,20.526 98.525,20.526 98.525,17.426 97.726,17.426 97.726,11.626 98.525,11.626 98.525,8.526 97.726,8.526 97.726,7.526" style="fill:none;stroke-width:0.050000mm;stroke:black"/>
<polygon points="64.676,7.526 64.676,8.526 63.876,8.526 63.876,11.626 64.676,11.626 64.676,17.426 63.876,17.426 63.876,20.526 64.676,20.526 64.676,21.526 78.676,21.526 78.676,20.526 79.476,20.526 79.476,17.426 78.676,17.426 78.676,11.626 79.476,11.626 79.476,8.526 78.676,8.526 78.676,7.526" style="fill:none;stroke-width:0.050000mm;stroke:black"/>
<polygon points="45.626,7.526 45.626,8.526 44.826,8.526 44.826,11.626 45.626,11.626 45.626,17.426 44.826,17.426 44.826,20.526 45.626,20.526 45.626,21.526 59.626,21.526 59.626,20.526 60.426,20.526 60.426,17.426 59.626,17.426 59.626,11.626 60.426,11.626 60.426,8.526 59.626,8.526 59.626,7.526" style="fill:none;stroke-width:0.050000mm;stroke:black"/>
<polygon points="26.576,7.526 26.576,8.526 25.776,8.526 25.776,11.626 26.576,11.626 26.576,17.426 25.776,17.426 25.776,20.526 26.576,20.526 26.576,21.526 40.576,21.526 40.576,20.526 41.376,20.526 41.376,17.426 40.576,17.426 40.576,11.626 41.376,11.626 41.376,8.526 40.576,8.526 40.576,7.526" style="fill:none;stroke-width:0.050000mm;stroke:black"/>
<polygon points="7.526,7.526 7.526,8.526 6.726,8.526 6.726,11.626 7.526,11.626 7.526,17.426 6.726,17.426 6.726,20.526 7.526,20.526 7.526,21.526 21.526,21.526 21.526,20.526 22.326,20.526 22.326,17.426 21.526,17.426 21.526,11.626 22.326,11.626 22.326,8.526 21.526,8.526 21.526,7.526" style="fill:none;stroke-width:0.050000mm;stroke:black"/>
</svg>